G04 EAGLE Gerber RS-274X export*
G75*
%MOMM*%
%FSLAX34Y34*%
%LPD*%
%IN*%
%IPPOS*%
%AMOC8*
5,1,8,0,0,1.08239X$1,22.5*%
G01*
%ADD10C,0.254000*%


D10*
X393700Y228600D02*
X1104700Y228600D01*
X1104700Y873000D01*
X393700Y873000D01*
X393700Y228600D01*
X1082000Y850703D02*
X1081938Y850315D01*
X1081817Y849940D01*
X1081638Y849590D01*
X1081407Y849271D01*
X1081129Y848993D01*
X1080810Y848762D01*
X1080460Y848583D01*
X1080085Y848462D01*
X1079697Y848400D01*
X1079303Y848400D01*
X1078915Y848462D01*
X1078540Y848583D01*
X1078190Y848762D01*
X1077871Y848993D01*
X1077593Y849271D01*
X1077362Y849590D01*
X1077183Y849940D01*
X1077062Y850315D01*
X1077000Y850703D01*
X1077000Y851097D01*
X1077062Y851485D01*
X1077183Y851860D01*
X1077362Y852210D01*
X1077593Y852529D01*
X1077871Y852807D01*
X1078190Y853038D01*
X1078540Y853217D01*
X1078915Y853338D01*
X1079303Y853400D01*
X1079697Y853400D01*
X1080085Y853338D01*
X1080460Y853217D01*
X1080810Y853038D01*
X1081129Y852807D01*
X1081407Y852529D01*
X1081638Y852210D01*
X1081817Y851860D01*
X1081938Y851485D01*
X1082000Y851097D01*
X1082000Y850703D01*
X1082000Y253803D02*
X1081938Y253415D01*
X1081817Y253040D01*
X1081638Y252690D01*
X1081407Y252371D01*
X1081129Y252093D01*
X1080810Y251862D01*
X1080460Y251683D01*
X1080085Y251562D01*
X1079697Y251500D01*
X1079303Y251500D01*
X1078915Y251562D01*
X1078540Y251683D01*
X1078190Y251862D01*
X1077871Y252093D01*
X1077593Y252371D01*
X1077362Y252690D01*
X1077183Y253040D01*
X1077062Y253415D01*
X1077000Y253803D01*
X1077000Y254197D01*
X1077062Y254585D01*
X1077183Y254960D01*
X1077362Y255310D01*
X1077593Y255629D01*
X1077871Y255907D01*
X1078190Y256138D01*
X1078540Y256317D01*
X1078915Y256438D01*
X1079303Y256500D01*
X1079697Y256500D01*
X1080085Y256438D01*
X1080460Y256317D01*
X1080810Y256138D01*
X1081129Y255907D01*
X1081407Y255629D01*
X1081638Y255310D01*
X1081817Y254960D01*
X1081938Y254585D01*
X1082000Y254197D01*
X1082000Y253803D01*
X421600Y253803D02*
X421538Y253415D01*
X421417Y253040D01*
X421238Y252690D01*
X421007Y252371D01*
X420729Y252093D01*
X420410Y251862D01*
X420060Y251683D01*
X419685Y251562D01*
X419297Y251500D01*
X418903Y251500D01*
X418515Y251562D01*
X418140Y251683D01*
X417790Y251862D01*
X417471Y252093D01*
X417193Y252371D01*
X416962Y252690D01*
X416783Y253040D01*
X416662Y253415D01*
X416600Y253803D01*
X416600Y254197D01*
X416662Y254585D01*
X416783Y254960D01*
X416962Y255310D01*
X417193Y255629D01*
X417471Y255907D01*
X417790Y256138D01*
X418140Y256317D01*
X418515Y256438D01*
X418903Y256500D01*
X419297Y256500D01*
X419685Y256438D01*
X420060Y256317D01*
X420410Y256138D01*
X420729Y255907D01*
X421007Y255629D01*
X421238Y255310D01*
X421417Y254960D01*
X421538Y254585D01*
X421600Y254197D01*
X421600Y253803D01*
X421600Y850703D02*
X421538Y850315D01*
X421417Y849940D01*
X421238Y849590D01*
X421007Y849271D01*
X420729Y848993D01*
X420410Y848762D01*
X420060Y848583D01*
X419685Y848462D01*
X419297Y848400D01*
X418903Y848400D01*
X418515Y848462D01*
X418140Y848583D01*
X417790Y848762D01*
X417471Y848993D01*
X417193Y849271D01*
X416962Y849590D01*
X416783Y849940D01*
X416662Y850315D01*
X416600Y850703D01*
X416600Y851097D01*
X416662Y851485D01*
X416783Y851860D01*
X416962Y852210D01*
X417193Y852529D01*
X417471Y852807D01*
X417790Y853038D01*
X418140Y853217D01*
X418515Y853338D01*
X418903Y853400D01*
X419297Y853400D01*
X419685Y853338D01*
X420060Y853217D01*
X420410Y853038D01*
X420729Y852807D01*
X421007Y852529D01*
X421238Y852210D01*
X421417Y851860D01*
X421538Y851485D01*
X421600Y851097D01*
X421600Y850703D01*
M02*
