G04 EAGLE Gerber RS-274X export*
G75*
%MOMM*%
%FSLAX34Y34*%
%LPD*%
%INSilkscreen Bottom*%
%IPPOS*%
%AMOC8*
5,1,8,0,0,1.08239X$1,22.5*%
G01*
%ADD10C,0.101600*%
%ADD11C,0.152400*%


D10*
X808623Y567944D02*
X808623Y581152D01*
X812292Y581152D02*
X804954Y581152D01*
X799917Y581152D02*
X799917Y567944D01*
X799917Y575282D02*
X792579Y575282D01*
X792579Y581152D02*
X792579Y567944D01*
X786238Y567944D02*
X780368Y567944D01*
X786238Y567944D02*
X786238Y581152D01*
X780368Y581152D01*
X781836Y575282D02*
X786238Y575282D01*
X775089Y581152D02*
X775089Y567944D01*
X775089Y581152D02*
X771421Y581152D01*
X771301Y581150D01*
X771181Y581144D01*
X771061Y581134D01*
X770942Y581121D01*
X770823Y581103D01*
X770705Y581082D01*
X770588Y581056D01*
X770471Y581027D01*
X770356Y580994D01*
X770242Y580957D01*
X770129Y580917D01*
X770017Y580873D01*
X769907Y580825D01*
X769798Y580774D01*
X769691Y580719D01*
X769587Y580660D01*
X769484Y580599D01*
X769383Y580534D01*
X769284Y580465D01*
X769187Y580394D01*
X769093Y580319D01*
X769002Y580242D01*
X768913Y580161D01*
X768827Y580077D01*
X768743Y579991D01*
X768662Y579902D01*
X768585Y579811D01*
X768510Y579717D01*
X768439Y579620D01*
X768370Y579521D01*
X768305Y579420D01*
X768244Y579318D01*
X768185Y579213D01*
X768130Y579106D01*
X768079Y578997D01*
X768031Y578887D01*
X767987Y578775D01*
X767947Y578662D01*
X767910Y578548D01*
X767877Y578433D01*
X767848Y578316D01*
X767822Y578199D01*
X767801Y578081D01*
X767783Y577962D01*
X767770Y577843D01*
X767760Y577723D01*
X767754Y577603D01*
X767752Y577483D01*
X767754Y577363D01*
X767760Y577243D01*
X767770Y577123D01*
X767783Y577004D01*
X767801Y576885D01*
X767822Y576767D01*
X767848Y576650D01*
X767877Y576533D01*
X767910Y576418D01*
X767947Y576304D01*
X767987Y576191D01*
X768031Y576079D01*
X768079Y575969D01*
X768130Y575860D01*
X768185Y575753D01*
X768244Y575649D01*
X768305Y575546D01*
X768370Y575445D01*
X768439Y575346D01*
X768510Y575249D01*
X768585Y575155D01*
X768662Y575064D01*
X768743Y574975D01*
X768827Y574889D01*
X768913Y574805D01*
X769002Y574724D01*
X769093Y574647D01*
X769187Y574572D01*
X769284Y574501D01*
X769383Y574432D01*
X769484Y574367D01*
X769587Y574306D01*
X769691Y574247D01*
X769798Y574192D01*
X769907Y574141D01*
X770017Y574093D01*
X770129Y574049D01*
X770242Y574009D01*
X770356Y573972D01*
X770471Y573939D01*
X770588Y573910D01*
X770705Y573884D01*
X770823Y573863D01*
X770942Y573845D01*
X771061Y573832D01*
X771181Y573822D01*
X771301Y573816D01*
X771421Y573814D01*
X775089Y573814D01*
X770687Y573814D02*
X767752Y567944D01*
X761819Y567944D02*
X761819Y581152D01*
X757417Y573814D01*
X753014Y581152D01*
X753014Y567944D01*
X747004Y571613D02*
X747004Y577483D01*
X747002Y577603D01*
X746996Y577723D01*
X746986Y577843D01*
X746973Y577962D01*
X746955Y578081D01*
X746934Y578199D01*
X746908Y578316D01*
X746879Y578433D01*
X746846Y578548D01*
X746809Y578662D01*
X746769Y578775D01*
X746725Y578887D01*
X746677Y578997D01*
X746626Y579106D01*
X746571Y579213D01*
X746512Y579318D01*
X746451Y579420D01*
X746386Y579521D01*
X746317Y579620D01*
X746246Y579717D01*
X746171Y579811D01*
X746094Y579902D01*
X746013Y579991D01*
X745929Y580077D01*
X745843Y580161D01*
X745754Y580242D01*
X745663Y580319D01*
X745569Y580394D01*
X745472Y580465D01*
X745373Y580534D01*
X745272Y580599D01*
X745170Y580660D01*
X745065Y580719D01*
X744958Y580774D01*
X744849Y580825D01*
X744739Y580873D01*
X744627Y580917D01*
X744514Y580957D01*
X744400Y580994D01*
X744285Y581027D01*
X744168Y581056D01*
X744051Y581082D01*
X743933Y581103D01*
X743814Y581121D01*
X743695Y581134D01*
X743575Y581144D01*
X743455Y581150D01*
X743335Y581152D01*
X743215Y581150D01*
X743095Y581144D01*
X742975Y581134D01*
X742856Y581121D01*
X742737Y581103D01*
X742619Y581082D01*
X742502Y581056D01*
X742385Y581027D01*
X742270Y580994D01*
X742156Y580957D01*
X742043Y580917D01*
X741931Y580873D01*
X741821Y580825D01*
X741712Y580774D01*
X741605Y580719D01*
X741501Y580660D01*
X741398Y580599D01*
X741297Y580534D01*
X741198Y580465D01*
X741101Y580394D01*
X741007Y580319D01*
X740916Y580242D01*
X740827Y580161D01*
X740741Y580077D01*
X740657Y579991D01*
X740576Y579902D01*
X740499Y579811D01*
X740424Y579717D01*
X740353Y579620D01*
X740284Y579521D01*
X740219Y579420D01*
X740158Y579318D01*
X740099Y579213D01*
X740044Y579106D01*
X739993Y578997D01*
X739945Y578887D01*
X739901Y578775D01*
X739861Y578662D01*
X739824Y578548D01*
X739791Y578433D01*
X739762Y578316D01*
X739736Y578199D01*
X739715Y578081D01*
X739697Y577962D01*
X739684Y577843D01*
X739674Y577723D01*
X739668Y577603D01*
X739666Y577483D01*
X739666Y571613D01*
X739668Y571493D01*
X739674Y571373D01*
X739684Y571253D01*
X739697Y571134D01*
X739715Y571015D01*
X739736Y570897D01*
X739762Y570780D01*
X739791Y570663D01*
X739824Y570548D01*
X739861Y570434D01*
X739901Y570321D01*
X739945Y570209D01*
X739993Y570099D01*
X740044Y569990D01*
X740099Y569883D01*
X740158Y569779D01*
X740219Y569676D01*
X740284Y569575D01*
X740353Y569476D01*
X740424Y569379D01*
X740499Y569285D01*
X740576Y569194D01*
X740657Y569105D01*
X740741Y569019D01*
X740827Y568935D01*
X740916Y568854D01*
X741007Y568777D01*
X741101Y568702D01*
X741198Y568631D01*
X741297Y568562D01*
X741398Y568497D01*
X741501Y568436D01*
X741605Y568377D01*
X741712Y568322D01*
X741821Y568271D01*
X741931Y568223D01*
X742043Y568179D01*
X742156Y568139D01*
X742270Y568102D01*
X742385Y568069D01*
X742502Y568040D01*
X742619Y568014D01*
X742737Y567993D01*
X742856Y567975D01*
X742975Y567962D01*
X743095Y567952D01*
X743215Y567946D01*
X743335Y567944D01*
X743455Y567946D01*
X743575Y567952D01*
X743695Y567962D01*
X743814Y567975D01*
X743933Y567993D01*
X744051Y568014D01*
X744168Y568040D01*
X744285Y568069D01*
X744400Y568102D01*
X744514Y568139D01*
X744627Y568179D01*
X744739Y568223D01*
X744849Y568271D01*
X744958Y568322D01*
X745065Y568377D01*
X745170Y568436D01*
X745272Y568497D01*
X745373Y568562D01*
X745472Y568631D01*
X745569Y568702D01*
X745663Y568777D01*
X745754Y568854D01*
X745843Y568935D01*
X745929Y569019D01*
X746013Y569105D01*
X746094Y569194D01*
X746171Y569285D01*
X746246Y569379D01*
X746317Y569476D01*
X746386Y569575D01*
X746451Y569676D01*
X746512Y569779D01*
X746571Y569883D01*
X746626Y569990D01*
X746677Y570099D01*
X746725Y570209D01*
X746769Y570321D01*
X746809Y570434D01*
X746846Y570548D01*
X746879Y570663D01*
X746908Y570780D01*
X746934Y570897D01*
X746955Y571015D01*
X746973Y571134D01*
X746986Y571253D01*
X746996Y571373D01*
X747002Y571493D01*
X747004Y571613D01*
X728639Y575282D02*
X726438Y575282D01*
X726438Y567944D01*
X730841Y567944D01*
X730948Y567946D01*
X731055Y567952D01*
X731162Y567962D01*
X731268Y567975D01*
X731374Y567993D01*
X731479Y568014D01*
X731583Y568039D01*
X731687Y568068D01*
X731789Y568101D01*
X731889Y568138D01*
X731989Y568178D01*
X732087Y568222D01*
X732183Y568269D01*
X732277Y568320D01*
X732370Y568374D01*
X732460Y568431D01*
X732549Y568492D01*
X732635Y568556D01*
X732718Y568623D01*
X732800Y568693D01*
X732878Y568766D01*
X732954Y568842D01*
X733027Y568920D01*
X733097Y569002D01*
X733164Y569085D01*
X733228Y569171D01*
X733289Y569260D01*
X733346Y569350D01*
X733400Y569443D01*
X733451Y569537D01*
X733499Y569633D01*
X733542Y569731D01*
X733582Y569831D01*
X733619Y569931D01*
X733652Y570033D01*
X733681Y570137D01*
X733706Y570241D01*
X733727Y570346D01*
X733745Y570452D01*
X733758Y570558D01*
X733768Y570665D01*
X733774Y570772D01*
X733776Y570879D01*
X733776Y578217D01*
X733774Y578324D01*
X733768Y578431D01*
X733758Y578538D01*
X733745Y578644D01*
X733727Y578750D01*
X733706Y578855D01*
X733681Y578959D01*
X733652Y579063D01*
X733619Y579165D01*
X733582Y579265D01*
X733542Y579365D01*
X733498Y579463D01*
X733451Y579559D01*
X733400Y579653D01*
X733346Y579746D01*
X733289Y579836D01*
X733228Y579925D01*
X733164Y580011D01*
X733097Y580094D01*
X733027Y580176D01*
X732954Y580254D01*
X732878Y580330D01*
X732800Y580403D01*
X732718Y580473D01*
X732635Y580540D01*
X732549Y580604D01*
X732460Y580665D01*
X732370Y580722D01*
X732277Y580776D01*
X732183Y580827D01*
X732087Y580874D01*
X731989Y580918D01*
X731890Y580958D01*
X731789Y580995D01*
X731687Y581028D01*
X731583Y581057D01*
X731479Y581082D01*
X731374Y581103D01*
X731268Y581121D01*
X731162Y581134D01*
X731055Y581144D01*
X730948Y581150D01*
X730841Y581152D01*
X726438Y581152D01*
X720043Y581152D02*
X720043Y567944D01*
X720043Y581152D02*
X716374Y581152D01*
X716254Y581150D01*
X716134Y581144D01*
X716014Y581134D01*
X715895Y581121D01*
X715776Y581103D01*
X715658Y581082D01*
X715541Y581056D01*
X715424Y581027D01*
X715309Y580994D01*
X715195Y580957D01*
X715082Y580917D01*
X714970Y580873D01*
X714860Y580825D01*
X714751Y580774D01*
X714644Y580719D01*
X714540Y580660D01*
X714437Y580599D01*
X714336Y580534D01*
X714237Y580465D01*
X714140Y580394D01*
X714046Y580319D01*
X713955Y580242D01*
X713866Y580161D01*
X713780Y580077D01*
X713696Y579991D01*
X713615Y579902D01*
X713538Y579811D01*
X713463Y579717D01*
X713392Y579620D01*
X713323Y579521D01*
X713258Y579420D01*
X713197Y579318D01*
X713138Y579213D01*
X713083Y579106D01*
X713032Y578997D01*
X712984Y578887D01*
X712940Y578775D01*
X712900Y578662D01*
X712863Y578548D01*
X712830Y578433D01*
X712801Y578316D01*
X712775Y578199D01*
X712754Y578081D01*
X712736Y577962D01*
X712723Y577843D01*
X712713Y577723D01*
X712707Y577603D01*
X712705Y577483D01*
X712707Y577363D01*
X712713Y577243D01*
X712723Y577123D01*
X712736Y577004D01*
X712754Y576885D01*
X712775Y576767D01*
X712801Y576650D01*
X712830Y576533D01*
X712863Y576418D01*
X712900Y576304D01*
X712940Y576191D01*
X712984Y576079D01*
X713032Y575969D01*
X713083Y575860D01*
X713138Y575753D01*
X713197Y575649D01*
X713258Y575546D01*
X713323Y575445D01*
X713392Y575346D01*
X713463Y575249D01*
X713538Y575155D01*
X713615Y575064D01*
X713696Y574975D01*
X713780Y574889D01*
X713866Y574805D01*
X713955Y574724D01*
X714046Y574647D01*
X714140Y574572D01*
X714237Y574501D01*
X714336Y574432D01*
X714437Y574367D01*
X714540Y574306D01*
X714644Y574247D01*
X714751Y574192D01*
X714860Y574141D01*
X714970Y574093D01*
X715082Y574049D01*
X715195Y574009D01*
X715309Y573972D01*
X715424Y573939D01*
X715541Y573910D01*
X715658Y573884D01*
X715776Y573863D01*
X715895Y573845D01*
X716014Y573832D01*
X716134Y573822D01*
X716254Y573816D01*
X716374Y573814D01*
X720043Y573814D01*
X715640Y573814D02*
X712705Y567944D01*
X708053Y567944D02*
X703650Y581152D01*
X699248Y567944D01*
X700348Y571246D02*
X706952Y571246D01*
X693911Y567944D02*
X693911Y581152D01*
X690242Y581152D01*
X690122Y581150D01*
X690002Y581144D01*
X689882Y581134D01*
X689763Y581121D01*
X689644Y581103D01*
X689526Y581082D01*
X689409Y581056D01*
X689292Y581027D01*
X689177Y580994D01*
X689063Y580957D01*
X688950Y580917D01*
X688838Y580873D01*
X688728Y580825D01*
X688619Y580774D01*
X688512Y580719D01*
X688408Y580660D01*
X688305Y580599D01*
X688204Y580534D01*
X688105Y580465D01*
X688008Y580394D01*
X687914Y580319D01*
X687823Y580242D01*
X687734Y580161D01*
X687648Y580077D01*
X687564Y579991D01*
X687483Y579902D01*
X687406Y579811D01*
X687331Y579717D01*
X687260Y579620D01*
X687191Y579521D01*
X687126Y579420D01*
X687065Y579318D01*
X687006Y579213D01*
X686951Y579106D01*
X686900Y578997D01*
X686852Y578887D01*
X686808Y578775D01*
X686768Y578662D01*
X686731Y578548D01*
X686698Y578433D01*
X686669Y578316D01*
X686643Y578199D01*
X686622Y578081D01*
X686604Y577962D01*
X686591Y577843D01*
X686581Y577723D01*
X686575Y577603D01*
X686573Y577483D01*
X686575Y577363D01*
X686581Y577243D01*
X686591Y577123D01*
X686604Y577004D01*
X686622Y576885D01*
X686643Y576767D01*
X686669Y576650D01*
X686698Y576533D01*
X686731Y576418D01*
X686768Y576304D01*
X686808Y576191D01*
X686852Y576079D01*
X686900Y575969D01*
X686951Y575860D01*
X687006Y575753D01*
X687065Y575649D01*
X687126Y575546D01*
X687191Y575445D01*
X687260Y575346D01*
X687331Y575249D01*
X687406Y575155D01*
X687483Y575064D01*
X687564Y574975D01*
X687648Y574889D01*
X687734Y574805D01*
X687823Y574724D01*
X687914Y574647D01*
X688008Y574572D01*
X688105Y574501D01*
X688204Y574432D01*
X688305Y574367D01*
X688408Y574306D01*
X688512Y574247D01*
X688619Y574192D01*
X688728Y574141D01*
X688838Y574093D01*
X688950Y574049D01*
X689063Y574009D01*
X689177Y573972D01*
X689292Y573939D01*
X689409Y573910D01*
X689526Y573884D01*
X689644Y573863D01*
X689763Y573845D01*
X689882Y573832D01*
X690002Y573822D01*
X690122Y573816D01*
X690242Y573814D01*
X693911Y573814D01*
X681289Y567944D02*
X681289Y581152D01*
X681289Y575282D02*
X673952Y575282D01*
X673952Y581152D02*
X673952Y567944D01*
X664392Y574915D02*
X668795Y581152D01*
X664392Y574915D02*
X659989Y581152D01*
X664392Y574915D02*
X664392Y567944D01*
X644763Y567944D02*
X649166Y581152D01*
X640360Y581152D02*
X644763Y567944D01*
X635630Y578217D02*
X631961Y581152D01*
X631961Y567944D01*
X628293Y567944D02*
X635630Y567944D01*
X807889Y559816D02*
X807889Y549543D01*
X807891Y549436D01*
X807897Y549329D01*
X807907Y549222D01*
X807920Y549116D01*
X807938Y549010D01*
X807959Y548905D01*
X807984Y548801D01*
X808013Y548697D01*
X808046Y548595D01*
X808083Y548495D01*
X808123Y548395D01*
X808167Y548297D01*
X808214Y548201D01*
X808265Y548107D01*
X808319Y548014D01*
X808376Y547924D01*
X808437Y547835D01*
X808501Y547749D01*
X808568Y547666D01*
X808638Y547584D01*
X808711Y547506D01*
X808787Y547430D01*
X808865Y547357D01*
X808947Y547287D01*
X809030Y547220D01*
X809116Y547156D01*
X809205Y547095D01*
X809295Y547038D01*
X809388Y546984D01*
X809482Y546933D01*
X809578Y546886D01*
X809676Y546842D01*
X809776Y546802D01*
X809876Y546765D01*
X809978Y546732D01*
X810082Y546703D01*
X810186Y546678D01*
X810291Y546657D01*
X810397Y546639D01*
X810503Y546626D01*
X810610Y546616D01*
X810717Y546610D01*
X810824Y546608D01*
X812292Y546608D01*
X802168Y549543D02*
X802168Y552478D01*
X802166Y552585D01*
X802160Y552692D01*
X802150Y552799D01*
X802137Y552905D01*
X802119Y553011D01*
X802098Y553116D01*
X802073Y553220D01*
X802044Y553324D01*
X802011Y553426D01*
X801974Y553526D01*
X801934Y553626D01*
X801890Y553724D01*
X801843Y553820D01*
X801792Y553914D01*
X801738Y554007D01*
X801681Y554097D01*
X801620Y554186D01*
X801556Y554272D01*
X801489Y554355D01*
X801419Y554437D01*
X801346Y554515D01*
X801270Y554591D01*
X801192Y554664D01*
X801110Y554734D01*
X801027Y554801D01*
X800941Y554865D01*
X800852Y554926D01*
X800762Y554983D01*
X800669Y555037D01*
X800575Y555088D01*
X800479Y555135D01*
X800381Y555179D01*
X800281Y555219D01*
X800181Y555256D01*
X800079Y555289D01*
X799975Y555318D01*
X799871Y555343D01*
X799766Y555364D01*
X799660Y555382D01*
X799554Y555395D01*
X799447Y555405D01*
X799340Y555411D01*
X799233Y555413D01*
X799126Y555411D01*
X799019Y555405D01*
X798912Y555395D01*
X798806Y555382D01*
X798700Y555364D01*
X798595Y555343D01*
X798491Y555318D01*
X798387Y555289D01*
X798285Y555256D01*
X798185Y555219D01*
X798085Y555179D01*
X797987Y555135D01*
X797891Y555088D01*
X797797Y555037D01*
X797704Y554983D01*
X797614Y554926D01*
X797525Y554865D01*
X797439Y554801D01*
X797356Y554734D01*
X797274Y554664D01*
X797196Y554591D01*
X797120Y554515D01*
X797047Y554437D01*
X796977Y554355D01*
X796910Y554272D01*
X796846Y554186D01*
X796785Y554097D01*
X796728Y554007D01*
X796674Y553914D01*
X796623Y553820D01*
X796576Y553724D01*
X796532Y553626D01*
X796492Y553526D01*
X796455Y553426D01*
X796422Y553324D01*
X796393Y553220D01*
X796368Y553116D01*
X796347Y553011D01*
X796329Y552905D01*
X796316Y552799D01*
X796306Y552692D01*
X796300Y552585D01*
X796298Y552478D01*
X796298Y549543D01*
X796300Y549436D01*
X796306Y549329D01*
X796316Y549222D01*
X796329Y549116D01*
X796347Y549010D01*
X796368Y548905D01*
X796393Y548801D01*
X796422Y548697D01*
X796455Y548595D01*
X796492Y548495D01*
X796532Y548395D01*
X796576Y548297D01*
X796623Y548201D01*
X796674Y548107D01*
X796728Y548014D01*
X796785Y547924D01*
X796846Y547835D01*
X796910Y547749D01*
X796977Y547666D01*
X797047Y547584D01*
X797120Y547506D01*
X797196Y547430D01*
X797274Y547357D01*
X797356Y547287D01*
X797439Y547220D01*
X797525Y547156D01*
X797614Y547095D01*
X797704Y547038D01*
X797797Y546984D01*
X797891Y546933D01*
X797987Y546886D01*
X798085Y546842D01*
X798185Y546802D01*
X798285Y546765D01*
X798387Y546732D01*
X798491Y546703D01*
X798595Y546678D01*
X798700Y546657D01*
X798806Y546639D01*
X798912Y546626D01*
X799019Y546616D01*
X799126Y546610D01*
X799233Y546608D01*
X799340Y546610D01*
X799447Y546616D01*
X799554Y546626D01*
X799660Y546639D01*
X799766Y546657D01*
X799871Y546678D01*
X799975Y546703D01*
X800079Y546732D01*
X800181Y546765D01*
X800281Y546802D01*
X800381Y546842D01*
X800479Y546886D01*
X800575Y546933D01*
X800669Y546984D01*
X800762Y547038D01*
X800852Y547095D01*
X800941Y547156D01*
X801027Y547220D01*
X801110Y547287D01*
X801192Y547357D01*
X801270Y547430D01*
X801346Y547506D01*
X801419Y547584D01*
X801489Y547666D01*
X801556Y547749D01*
X801620Y547835D01*
X801681Y547924D01*
X801738Y548014D01*
X801792Y548107D01*
X801843Y548201D01*
X801890Y548297D01*
X801934Y548395D01*
X801974Y548495D01*
X802011Y548595D01*
X802044Y548697D01*
X802073Y548801D01*
X802098Y548905D01*
X802119Y549010D01*
X802137Y549116D01*
X802150Y549222D01*
X802160Y549329D01*
X802166Y549436D01*
X802168Y549543D01*
X790646Y546608D02*
X790646Y559816D01*
X790646Y555413D02*
X786977Y555413D01*
X786884Y555411D01*
X786790Y555405D01*
X786697Y555395D01*
X786605Y555381D01*
X786513Y555364D01*
X786422Y555342D01*
X786333Y555317D01*
X786244Y555287D01*
X786156Y555254D01*
X786070Y555218D01*
X785986Y555177D01*
X785904Y555134D01*
X785823Y555086D01*
X785745Y555036D01*
X785668Y554982D01*
X785594Y554924D01*
X785523Y554864D01*
X785454Y554801D01*
X785388Y554735D01*
X785325Y554666D01*
X785265Y554595D01*
X785207Y554521D01*
X785153Y554445D01*
X785103Y554366D01*
X785056Y554285D01*
X785012Y554203D01*
X784971Y554119D01*
X784935Y554033D01*
X784902Y553945D01*
X784872Y553857D01*
X784847Y553767D01*
X784825Y553676D01*
X784808Y553584D01*
X784794Y553492D01*
X784784Y553399D01*
X784778Y553305D01*
X784776Y553212D01*
X784776Y546608D01*
X778698Y546608D02*
X778698Y555413D01*
X775029Y555413D01*
X774936Y555411D01*
X774842Y555405D01*
X774749Y555395D01*
X774657Y555381D01*
X774565Y555364D01*
X774474Y555342D01*
X774385Y555317D01*
X774296Y555287D01*
X774208Y555254D01*
X774122Y555218D01*
X774038Y555177D01*
X773956Y555134D01*
X773875Y555086D01*
X773797Y555036D01*
X773720Y554982D01*
X773646Y554924D01*
X773575Y554864D01*
X773506Y554801D01*
X773440Y554735D01*
X773377Y554666D01*
X773317Y554595D01*
X773259Y554521D01*
X773205Y554445D01*
X773155Y554366D01*
X773108Y554285D01*
X773064Y554203D01*
X773023Y554119D01*
X772987Y554033D01*
X772954Y553945D01*
X772924Y553857D01*
X772899Y553767D01*
X772877Y553676D01*
X772860Y553584D01*
X772846Y553492D01*
X772836Y553399D01*
X772830Y553305D01*
X772828Y553212D01*
X772828Y546608D01*
X766076Y551744D02*
X762407Y550277D01*
X766077Y551744D02*
X766156Y551778D01*
X766234Y551816D01*
X766311Y551857D01*
X766385Y551901D01*
X766457Y551949D01*
X766527Y552000D01*
X766594Y552054D01*
X766659Y552111D01*
X766722Y552172D01*
X766781Y552234D01*
X766838Y552300D01*
X766891Y552368D01*
X766942Y552438D01*
X766989Y552511D01*
X767033Y552586D01*
X767073Y552662D01*
X767110Y552741D01*
X767143Y552820D01*
X767173Y552902D01*
X767199Y552984D01*
X767221Y553068D01*
X767239Y553153D01*
X767253Y553238D01*
X767264Y553324D01*
X767270Y553410D01*
X767273Y553497D01*
X767272Y553584D01*
X767266Y553670D01*
X767257Y553756D01*
X767244Y553842D01*
X767227Y553927D01*
X767206Y554011D01*
X767182Y554094D01*
X767153Y554175D01*
X767121Y554256D01*
X767086Y554335D01*
X767046Y554412D01*
X767004Y554487D01*
X766957Y554560D01*
X766908Y554632D01*
X766856Y554700D01*
X766800Y554767D01*
X766741Y554830D01*
X766680Y554891D01*
X766616Y554950D01*
X766549Y555005D01*
X766480Y555057D01*
X766408Y555106D01*
X766335Y555151D01*
X766259Y555193D01*
X766182Y555232D01*
X766103Y555267D01*
X766022Y555299D01*
X765940Y555327D01*
X765857Y555351D01*
X765773Y555371D01*
X765688Y555387D01*
X765602Y555400D01*
X765516Y555408D01*
X765429Y555413D01*
X765343Y555414D01*
X765342Y555413D02*
X765142Y555408D01*
X764942Y555398D01*
X764742Y555383D01*
X764542Y555363D01*
X764343Y555339D01*
X764145Y555309D01*
X763948Y555275D01*
X763751Y555237D01*
X763556Y555193D01*
X763361Y555145D01*
X763168Y555092D01*
X762976Y555035D01*
X762785Y554973D01*
X762596Y554906D01*
X762409Y554835D01*
X762224Y554759D01*
X762040Y554679D01*
X762407Y550277D02*
X762328Y550243D01*
X762250Y550205D01*
X762173Y550164D01*
X762099Y550120D01*
X762027Y550072D01*
X761957Y550021D01*
X761890Y549967D01*
X761825Y549910D01*
X761762Y549849D01*
X761703Y549787D01*
X761646Y549721D01*
X761593Y549653D01*
X761542Y549583D01*
X761495Y549510D01*
X761451Y549435D01*
X761411Y549359D01*
X761374Y549280D01*
X761341Y549201D01*
X761311Y549119D01*
X761285Y549037D01*
X761263Y548953D01*
X761245Y548868D01*
X761231Y548783D01*
X761220Y548697D01*
X761214Y548611D01*
X761211Y548524D01*
X761212Y548437D01*
X761218Y548351D01*
X761227Y548265D01*
X761240Y548179D01*
X761257Y548094D01*
X761278Y548010D01*
X761302Y547927D01*
X761331Y547846D01*
X761363Y547765D01*
X761398Y547686D01*
X761438Y547609D01*
X761480Y547534D01*
X761527Y547461D01*
X761576Y547389D01*
X761628Y547321D01*
X761684Y547254D01*
X761743Y547191D01*
X761804Y547130D01*
X761868Y547071D01*
X761935Y547016D01*
X762004Y546964D01*
X762076Y546915D01*
X762149Y546870D01*
X762225Y546828D01*
X762302Y546789D01*
X762381Y546754D01*
X762462Y546722D01*
X762544Y546694D01*
X762627Y546670D01*
X762711Y546650D01*
X762796Y546634D01*
X762882Y546621D01*
X762968Y546613D01*
X763055Y546608D01*
X763141Y546607D01*
X763141Y546608D02*
X763435Y546616D01*
X763729Y546631D01*
X764023Y546652D01*
X764316Y546681D01*
X764608Y546716D01*
X764899Y546759D01*
X765189Y546808D01*
X765478Y546864D01*
X765766Y546927D01*
X766052Y546996D01*
X766336Y547073D01*
X766618Y547156D01*
X766899Y547246D01*
X767177Y547342D01*
X757153Y555413D02*
X752750Y555413D01*
X755686Y559816D02*
X755686Y548809D01*
X755685Y548809D02*
X755683Y548718D01*
X755677Y548627D01*
X755668Y548537D01*
X755655Y548447D01*
X755638Y548357D01*
X755618Y548269D01*
X755593Y548181D01*
X755566Y548094D01*
X755534Y548009D01*
X755500Y547925D01*
X755461Y547842D01*
X755420Y547761D01*
X755375Y547682D01*
X755327Y547605D01*
X755275Y547530D01*
X755221Y547457D01*
X755164Y547386D01*
X755103Y547318D01*
X755040Y547253D01*
X754975Y547190D01*
X754907Y547129D01*
X754836Y547072D01*
X754763Y547018D01*
X754688Y546966D01*
X754611Y546918D01*
X754532Y546873D01*
X754451Y546832D01*
X754368Y546793D01*
X754284Y546759D01*
X754199Y546727D01*
X754112Y546700D01*
X754024Y546675D01*
X753936Y546655D01*
X753846Y546638D01*
X753756Y546625D01*
X753666Y546616D01*
X753575Y546610D01*
X753484Y546608D01*
X752750Y546608D01*
X747974Y549543D02*
X747974Y552478D01*
X747972Y552585D01*
X747966Y552692D01*
X747956Y552799D01*
X747943Y552905D01*
X747925Y553011D01*
X747904Y553116D01*
X747879Y553220D01*
X747850Y553324D01*
X747817Y553426D01*
X747780Y553526D01*
X747740Y553626D01*
X747696Y553724D01*
X747649Y553820D01*
X747598Y553914D01*
X747544Y554007D01*
X747487Y554097D01*
X747426Y554186D01*
X747362Y554272D01*
X747295Y554355D01*
X747225Y554437D01*
X747152Y554515D01*
X747076Y554591D01*
X746998Y554664D01*
X746916Y554734D01*
X746833Y554801D01*
X746747Y554865D01*
X746658Y554926D01*
X746568Y554983D01*
X746475Y555037D01*
X746381Y555088D01*
X746285Y555135D01*
X746187Y555179D01*
X746087Y555219D01*
X745987Y555256D01*
X745885Y555289D01*
X745781Y555318D01*
X745677Y555343D01*
X745572Y555364D01*
X745466Y555382D01*
X745360Y555395D01*
X745253Y555405D01*
X745146Y555411D01*
X745039Y555413D01*
X744932Y555411D01*
X744825Y555405D01*
X744718Y555395D01*
X744612Y555382D01*
X744506Y555364D01*
X744401Y555343D01*
X744297Y555318D01*
X744193Y555289D01*
X744091Y555256D01*
X743991Y555219D01*
X743891Y555179D01*
X743793Y555135D01*
X743697Y555088D01*
X743603Y555037D01*
X743510Y554983D01*
X743420Y554926D01*
X743331Y554865D01*
X743245Y554801D01*
X743162Y554734D01*
X743080Y554664D01*
X743002Y554591D01*
X742926Y554515D01*
X742853Y554437D01*
X742783Y554355D01*
X742716Y554272D01*
X742652Y554186D01*
X742591Y554097D01*
X742534Y554007D01*
X742480Y553914D01*
X742429Y553820D01*
X742382Y553724D01*
X742338Y553626D01*
X742298Y553526D01*
X742261Y553426D01*
X742228Y553324D01*
X742199Y553220D01*
X742174Y553116D01*
X742153Y553011D01*
X742135Y552905D01*
X742122Y552799D01*
X742112Y552692D01*
X742106Y552585D01*
X742104Y552478D01*
X742104Y549543D01*
X742106Y549436D01*
X742112Y549329D01*
X742122Y549222D01*
X742135Y549116D01*
X742153Y549010D01*
X742174Y548905D01*
X742199Y548801D01*
X742228Y548697D01*
X742261Y548595D01*
X742298Y548495D01*
X742338Y548395D01*
X742382Y548297D01*
X742429Y548201D01*
X742480Y548107D01*
X742534Y548014D01*
X742591Y547924D01*
X742652Y547835D01*
X742716Y547749D01*
X742783Y547666D01*
X742853Y547584D01*
X742926Y547506D01*
X743002Y547430D01*
X743080Y547357D01*
X743162Y547287D01*
X743245Y547220D01*
X743331Y547156D01*
X743420Y547095D01*
X743510Y547038D01*
X743603Y546984D01*
X743697Y546933D01*
X743793Y546886D01*
X743891Y546842D01*
X743991Y546802D01*
X744091Y546765D01*
X744193Y546732D01*
X744297Y546703D01*
X744401Y546678D01*
X744506Y546657D01*
X744612Y546639D01*
X744718Y546626D01*
X744825Y546616D01*
X744932Y546610D01*
X745039Y546608D01*
X745146Y546610D01*
X745253Y546616D01*
X745360Y546626D01*
X745466Y546639D01*
X745572Y546657D01*
X745677Y546678D01*
X745781Y546703D01*
X745885Y546732D01*
X745987Y546765D01*
X746087Y546802D01*
X746187Y546842D01*
X746285Y546886D01*
X746381Y546933D01*
X746475Y546984D01*
X746568Y547038D01*
X746658Y547095D01*
X746747Y547156D01*
X746833Y547220D01*
X746916Y547287D01*
X746998Y547357D01*
X747076Y547430D01*
X747152Y547506D01*
X747225Y547584D01*
X747295Y547666D01*
X747362Y547749D01*
X747426Y547835D01*
X747487Y547924D01*
X747544Y548014D01*
X747598Y548107D01*
X747649Y548201D01*
X747696Y548297D01*
X747740Y548395D01*
X747780Y548495D01*
X747817Y548595D01*
X747850Y548697D01*
X747879Y548801D01*
X747904Y548905D01*
X747925Y549010D01*
X747943Y549116D01*
X747956Y549222D01*
X747966Y549329D01*
X747972Y549436D01*
X747974Y549543D01*
X736453Y546608D02*
X736453Y555413D01*
X732784Y555413D01*
X732691Y555411D01*
X732597Y555405D01*
X732504Y555395D01*
X732412Y555381D01*
X732320Y555364D01*
X732229Y555342D01*
X732140Y555317D01*
X732051Y555287D01*
X731963Y555254D01*
X731877Y555218D01*
X731793Y555177D01*
X731711Y555134D01*
X731630Y555086D01*
X731552Y555036D01*
X731475Y554982D01*
X731401Y554924D01*
X731330Y554864D01*
X731261Y554801D01*
X731195Y554735D01*
X731132Y554666D01*
X731072Y554595D01*
X731014Y554521D01*
X730960Y554445D01*
X730910Y554366D01*
X730863Y554285D01*
X730819Y554203D01*
X730778Y554119D01*
X730742Y554033D01*
X730709Y553945D01*
X730679Y553857D01*
X730654Y553767D01*
X730632Y553676D01*
X730615Y553584D01*
X730601Y553492D01*
X730591Y553399D01*
X730585Y553305D01*
X730583Y553212D01*
X730583Y546608D01*
X724361Y546608D02*
X724361Y559816D01*
X724361Y546608D02*
X718491Y546608D01*
X711331Y551744D02*
X708029Y551744D01*
X711331Y551744D02*
X711431Y551742D01*
X711530Y551736D01*
X711629Y551727D01*
X711728Y551713D01*
X711826Y551696D01*
X711923Y551675D01*
X712020Y551650D01*
X712115Y551621D01*
X712209Y551589D01*
X712302Y551553D01*
X712394Y551514D01*
X712484Y551471D01*
X712572Y551424D01*
X712658Y551375D01*
X712742Y551322D01*
X712824Y551265D01*
X712904Y551206D01*
X712982Y551143D01*
X713057Y551078D01*
X713129Y551009D01*
X713199Y550938D01*
X713266Y550865D01*
X713330Y550788D01*
X713391Y550710D01*
X713449Y550628D01*
X713503Y550545D01*
X713555Y550460D01*
X713603Y550373D01*
X713648Y550284D01*
X713689Y550193D01*
X713727Y550101D01*
X713761Y550007D01*
X713791Y549913D01*
X713818Y549817D01*
X713841Y549720D01*
X713860Y549622D01*
X713875Y549524D01*
X713887Y549425D01*
X713895Y549325D01*
X713899Y549226D01*
X713899Y549126D01*
X713895Y549027D01*
X713887Y548927D01*
X713875Y548828D01*
X713860Y548730D01*
X713841Y548632D01*
X713818Y548535D01*
X713791Y548439D01*
X713761Y548345D01*
X713727Y548251D01*
X713689Y548159D01*
X713648Y548068D01*
X713603Y547979D01*
X713555Y547892D01*
X713503Y547807D01*
X713449Y547724D01*
X713391Y547642D01*
X713330Y547564D01*
X713266Y547487D01*
X713199Y547414D01*
X713129Y547343D01*
X713057Y547274D01*
X712982Y547209D01*
X712904Y547146D01*
X712824Y547087D01*
X712742Y547030D01*
X712658Y546977D01*
X712572Y546928D01*
X712484Y546881D01*
X712394Y546838D01*
X712302Y546799D01*
X712209Y546763D01*
X712115Y546731D01*
X712020Y546702D01*
X711923Y546677D01*
X711826Y546656D01*
X711728Y546639D01*
X711629Y546625D01*
X711530Y546616D01*
X711431Y546610D01*
X711331Y546608D01*
X708029Y546608D01*
X708029Y553212D01*
X708031Y553303D01*
X708037Y553394D01*
X708046Y553484D01*
X708059Y553574D01*
X708076Y553664D01*
X708096Y553752D01*
X708121Y553840D01*
X708148Y553927D01*
X708180Y554012D01*
X708214Y554096D01*
X708253Y554179D01*
X708294Y554260D01*
X708339Y554339D01*
X708387Y554416D01*
X708439Y554491D01*
X708493Y554564D01*
X708550Y554635D01*
X708611Y554703D01*
X708674Y554768D01*
X708739Y554831D01*
X708808Y554892D01*
X708878Y554949D01*
X708951Y555003D01*
X709026Y555055D01*
X709103Y555103D01*
X709182Y555148D01*
X709263Y555189D01*
X709346Y555228D01*
X709430Y555262D01*
X709515Y555294D01*
X709602Y555322D01*
X709690Y555346D01*
X709778Y555366D01*
X709868Y555383D01*
X709958Y555396D01*
X710048Y555405D01*
X710139Y555411D01*
X710230Y555413D01*
X713166Y555413D01*
X701826Y559816D02*
X701826Y546608D01*
X698157Y546608D01*
X698064Y546610D01*
X697970Y546616D01*
X697877Y546626D01*
X697785Y546640D01*
X697693Y546657D01*
X697602Y546679D01*
X697513Y546704D01*
X697424Y546734D01*
X697336Y546767D01*
X697250Y546803D01*
X697166Y546844D01*
X697084Y546887D01*
X697003Y546935D01*
X696925Y546985D01*
X696848Y547039D01*
X696774Y547097D01*
X696703Y547157D01*
X696634Y547220D01*
X696568Y547286D01*
X696505Y547355D01*
X696445Y547426D01*
X696387Y547500D01*
X696333Y547576D01*
X696283Y547655D01*
X696236Y547736D01*
X696192Y547818D01*
X696151Y547902D01*
X696115Y547988D01*
X696082Y548076D01*
X696052Y548164D01*
X696027Y548254D01*
X696005Y548345D01*
X695988Y548437D01*
X695974Y548529D01*
X695964Y548622D01*
X695958Y548716D01*
X695956Y548809D01*
X695956Y553212D01*
X695958Y553303D01*
X695964Y553394D01*
X695973Y553484D01*
X695986Y553574D01*
X696003Y553664D01*
X696023Y553752D01*
X696048Y553840D01*
X696075Y553927D01*
X696107Y554012D01*
X696141Y554096D01*
X696180Y554179D01*
X696221Y554260D01*
X696266Y554339D01*
X696314Y554416D01*
X696366Y554491D01*
X696420Y554564D01*
X696477Y554635D01*
X696538Y554703D01*
X696601Y554768D01*
X696666Y554831D01*
X696735Y554892D01*
X696805Y554949D01*
X696878Y555003D01*
X696953Y555055D01*
X697030Y555103D01*
X697109Y555148D01*
X697190Y555189D01*
X697273Y555228D01*
X697357Y555262D01*
X697442Y555294D01*
X697529Y555322D01*
X697617Y555346D01*
X697705Y555366D01*
X697795Y555383D01*
X697885Y555396D01*
X697975Y555405D01*
X698066Y555411D01*
X698157Y555413D01*
X701826Y555413D01*
X683727Y551744D02*
X674922Y551744D01*
X661964Y546608D02*
X661964Y559816D01*
X657562Y552478D01*
X653159Y559816D01*
X653159Y546608D01*
X643480Y546608D02*
X647883Y559816D01*
X639077Y559816D02*
X643480Y546608D01*
D11*
X679450Y330200D02*
X692150Y330200D01*
X679450Y330200D02*
X673100Y323850D01*
X673100Y311150D01*
X679450Y304800D01*
X717550Y330200D02*
X723900Y323850D01*
X717550Y330200D02*
X704850Y330200D01*
X698500Y323850D01*
X698500Y311150D01*
X704850Y304800D01*
X717550Y304800D01*
X723900Y311150D01*
X698500Y323850D02*
X692150Y330200D01*
X698500Y311150D02*
X692150Y304800D01*
X679450Y304800D01*
X755650Y330200D02*
X768350Y330200D01*
X755650Y330200D02*
X749300Y323850D01*
X749300Y311150D01*
X755650Y304800D01*
X749300Y323850D02*
X742950Y330200D01*
X730250Y330200D01*
X723900Y323850D01*
X723900Y311150D01*
X730250Y304800D01*
X742950Y304800D01*
X749300Y311150D01*
X774700Y311150D02*
X774700Y323850D01*
X768350Y330200D01*
X774700Y311150D02*
X768350Y304800D01*
X755650Y304800D01*
X666750Y330200D02*
X654050Y330200D01*
X647700Y323850D01*
X647700Y311150D01*
X654050Y304800D01*
X673100Y323850D02*
X666750Y330200D01*
X673100Y311150D02*
X666750Y304800D01*
X654050Y304800D01*
M02*
