G04 EAGLE Gerber RS-274X export*
G75*
%MOMM*%
%FSLAX34Y34*%
%LPD*%
%INSoldermask Bottom*%
%IPPOS*%
%AMOC8*
5,1,8,0,0,1.08239X$1,22.5*%
G01*
%ADD10C,0.627000*%
%ADD11P,1.787026X8X22.500000*%
%ADD12P,1.869504X8X112.500000*%
%ADD13C,1.477000*%
%ADD14C,2.057400*%
%ADD15C,1.651000*%
%ADD16P,1.457113X8X292.500000*%


D10*
X1079500Y850900D03*
X1079500Y254000D03*
X419100Y254000D03*
X419100Y850900D03*
D11*
X431800Y698500D03*
X1054100Y660400D03*
D12*
X1054100Y431800D03*
X1054100Y482600D03*
X431800Y368300D03*
X431800Y419100D03*
X1041400Y304800D03*
X1041400Y355600D03*
X965200Y304800D03*
X965200Y355600D03*
D13*
X457200Y314800D03*
X457200Y294800D03*
D14*
X584100Y436100D03*
X609500Y436100D03*
X634900Y436100D03*
X660300Y436100D03*
X685700Y436100D03*
X711100Y436100D03*
X736500Y436100D03*
X761900Y436100D03*
X787300Y436100D03*
X812700Y436100D03*
X838100Y436100D03*
X863500Y436100D03*
X888900Y436100D03*
X914300Y436100D03*
X939700Y436100D03*
X584100Y683800D03*
X609500Y683800D03*
X634900Y683800D03*
X660300Y683800D03*
X685700Y683800D03*
X711100Y683800D03*
X736500Y683800D03*
X761900Y683800D03*
X787300Y683800D03*
X812700Y683800D03*
X838100Y683800D03*
X863500Y683800D03*
X888900Y683800D03*
X914300Y683800D03*
X939700Y683800D03*
D11*
X533400Y774700D03*
X431800Y774700D03*
X482600Y774700D03*
D15*
X622300Y817880D02*
X622300Y833120D01*
X647700Y833120D02*
X647700Y817880D01*
X673100Y817880D02*
X673100Y833120D01*
X698500Y833120D02*
X698500Y817880D01*
X723900Y817880D02*
X723900Y833120D01*
X749300Y833120D02*
X749300Y817880D01*
X774700Y817880D02*
X774700Y833120D01*
X800100Y833120D02*
X800100Y817880D01*
X825500Y817880D02*
X825500Y833120D01*
X850900Y833120D02*
X850900Y817880D01*
X762000Y325120D02*
X762000Y309880D01*
X736600Y309880D02*
X736600Y325120D01*
X711200Y325120D02*
X711200Y309880D01*
X685800Y309880D02*
X685800Y325120D01*
X660400Y325120D02*
X660400Y309880D01*
D13*
X571500Y314800D03*
X571500Y294800D03*
X495300Y314800D03*
X495300Y294800D03*
X533400Y314800D03*
X533400Y294800D03*
D16*
X431800Y660400D03*
X431800Y584200D03*
X431800Y546100D03*
X431800Y469900D03*
X1054100Y609600D03*
X1054100Y533400D03*
M02*
