M48
;GenerationSoftware,Autodesk,EAGLE,9.4.2*%
;CreationDate,2019-07-29T08:21:30Z*%
FMAT,2
ICI,OFF
METRIC,TZ,000.000
T5C0.500
T4C0.813
T3C0.900
T2C1.000
T1C1.016
%
G90
M71
T1
X53340Y77470
X62230Y82550
X48260Y77470
X82550Y82550
X43180Y69850
X105410Y66040
X43180Y77470
X64770Y82550
X67310Y82550
X69850Y82550
X72390Y82550
X74930Y82550
X77470Y82550
X80010Y82550
X85090Y82550
X76200Y31750
X73660Y31750
X71120Y31750
X68580Y31750
X66040Y31750
T2
X68570Y43610
X71110Y43610
X73650Y43610
X76190Y43610
X78730Y43610
X63490Y43610
X83810Y43610
X86350Y43610
X88890Y43610
X76190Y68380
X93970Y43610
X58410Y68380
X60950Y68380
X63490Y68380
X66030Y68380
X68570Y68380
X93970Y68380
X91430Y68380
X91430Y43610
X88890Y68380
X86350Y68380
X83810Y68380
X81270Y68380
X81270Y43610
X71110Y68380
X73650Y68380
X58410Y43610
X60950Y43610
X78730Y68380
X66030Y43610
T3
X49530Y31480
X45720Y31480
X45720Y29480
X57150Y31480
X57150Y29480
X49530Y29480
X53340Y31480
X53340Y29480
T4
X96520Y35560
X96520Y30480
X104140Y35560
X104140Y30480
X43180Y41910
X43180Y36830
X105410Y48260
X105410Y43180
X43180Y66040
X43180Y58420
X43180Y54610
X43180Y46990
X105410Y60960
X105410Y53340
T5
X41910Y85090
X41910Y25400
X107950Y25400
X107950Y85090
M30